<svg xmlns="http://www.w3.org/2000/svg" viewBox="0 0 50.88 50.88"><title>Asset 2</title><g id="Layer_2" data-name="Layer 2"><g id="Layer_9" data-name="Layer 9"><path d="M50.06,14.49l-2.87-6a6.36,6.36,0,0,0-3.72-3.29L30.12.76a14.93,14.93,0,0,0-9.39,0L7.38,5.21A6.38,6.38,0,0,0,3.65,8.5L.92,14.24a6.42,6.42,0,0,0,3.3,9.34V37A10.58,10.58,0,0,0,11.46,47l9.25,3.09a14.88,14.88,0,0,0,9.39,0L39.36,47A10.58,10.58,0,0,0,46.61,37V23.58a6.3,6.3,0,0,0,3.86-3.79,6.21,6.21,0,0,0-.42-5.3Zm-28-9.71a10.66,10.66,0,0,1,6.7,0l9,3L25.44,11.92,13.07,7.78l9-3ZM4.65,16.25l2.82-5.9c.1.05,15,5,15,5L19,22.29a2.14,2.14,0,0,1-2.49.92L5.73,19.62a2.17,2.17,0,0,1-1.35-1.31,2.33,2.33,0,0,1,.27-2.06ZM12.8,43a6.34,6.34,0,0,1-4.35-6V25l6.7,2.23a6.37,6.37,0,0,0,7.55-2.9l.59-1.18V46.43a12.35,12.35,0,0,1-1.23-.33L12.8,43ZM38,43,28.76,46.1c-.41.13-.82.24-1.24.33V23.12l.68,1.35a6.3,6.3,0,0,0,7.47,2.76L42.38,25V37A6.35,6.35,0,0,1,38,43ZM46.5,18.32a2.07,2.07,0,0,1-1.31,1.27L34.34,23.21a2.12,2.12,0,0,1-2.41-.77l-3.51-7s14.85-5,15-5l2.95,6.15a2.12,2.12,0,0,1,.17,1.82Z" style="fill:#2da561"/></g></g></svg>