<svg xmlns="http://www.w3.org/2000/svg" viewBox="0 0 51.54 47.3"><title>Asset 1</title><g id="Layer_2" data-name="Layer 2"><g id="Layer_9" data-name="Layer 9"><path d="M0,19.33V30.06a8.59,8.59,0,0,0,6.57,8.33,6.69,6.69,0,0,0-.13,1.34,7.52,7.52,0,0,0,15,0,6.56,6.56,0,0,0-.09-1.08h8.77a7.61,7.61,0,0,0,0,2.52A7.51,7.51,0,1,0,45,38.39a8.6,8.6,0,0,0,6.58-8.33V10.74A10.75,10.75,0,0,0,40.8,0h-15A10.75,10.75,0,0,0,15.25,8.59H10.74A10.75,10.75,0,0,0,0,19.33Zm10.74-6.45H15v8.59H4.29V19.33A6.45,6.45,0,0,1,10.74,12.88ZM43,34.36H19.33V10.74a6.44,6.44,0,0,1,6.44-6.45h15a6.44,6.44,0,0,1,6.44,6.45V30.06A4.29,4.29,0,0,1,43,34.36Zm-8.39,4.29h6a3.08,3.08,0,0,1,.2,1.08,3.22,3.22,0,0,1-6.44,0A3.08,3.08,0,0,1,34.56,38.65ZM10.74,39.73a3.08,3.08,0,0,1,.2-1.08h6a3.08,3.08,0,0,1,.2,1.08,3.22,3.22,0,0,1-6.44,0ZM4.29,30.06V25.77H15v8.59H8.59A4.3,4.3,0,0,1,4.29,30.06Z" style="fill:#6c66f3"/></g></g></svg>