<svg xmlns="http://www.w3.org/2000/svg" viewBox="0 0 42.5 53.12"><title>Asset 3</title><g id="Layer_2" data-name="Layer 2"><g id="Layer_9" data-name="Layer 9"><path d="M34.64,12.85a1.64,1.64,0,0,1,0,.23,4.43,4.43,0,0,0-.52,0H30.82a1.48,1.48,0,0,1,0-.21,8.86,8.86,0,0,0-.64-3.3,9.71,9.71,0,0,0-17.84,0,8.86,8.86,0,0,0-.64,3.3,1.48,1.48,0,0,1,0,.21H8.54a4.87,4.87,0,0,0-.66,0,2.11,2.11,0,0,1,0-.25,12.4,12.4,0,0,1,.45-3.3A13.33,13.33,0,0,1,21.25,0,13.33,13.33,0,0,1,34.19,9.55,12.4,12.4,0,0,1,34.64,12.85Z" style="fill:#ff6b6c"/><path d="M32.34,53.12H10.16A10.17,10.17,0,0,1,0,43V20.68A10.17,10.17,0,0,1,10.16,10.52H32.34A10.17,10.17,0,0,1,42.5,20.68V43A10.17,10.17,0,0,1,32.34,53.12ZM10.16,14.77a5.92,5.92,0,0,0-5.91,5.91V43a5.91,5.91,0,0,0,5.91,5.9H32.34A5.91,5.91,0,0,0,38.25,43V20.68a5.92,5.92,0,0,0-5.91-5.91Z" style="fill:#ff6b6c"/><path d="M33.49,27.24,27,20.77a2.21,2.21,0,0,0-3.76,1.56v1.74H18A9.9,9.9,0,0,0,8.05,34v7.7a1.1,1.1,0,1,0,2.19,0,6.63,6.63,0,0,1,6.61-6.6h6.41v1.75A2.21,2.21,0,0,0,25.47,39,2.18,2.18,0,0,0,27,38.37l6.47-6.47A3.29,3.29,0,0,0,33.49,27.24Zm-1.56,3.11-6.46,6.47V34a1.11,1.11,0,0,0-1.11-1.1H16.85a8.8,8.8,0,0,0-6.61,3V34A7.72,7.72,0,0,1,18,26.27h6.41a1.11,1.11,0,0,0,1.11-1.1V22.33l6.46,6.46A1.1,1.1,0,0,1,31.93,30.35Z" style="fill:#ff6b6c"/><path d="M31.93,30.35l-6.46,6.47V34a1.11,1.11,0,0,0-1.11-1.1H16.85a8.8,8.8,0,0,0-6.61,3V34A7.72,7.72,0,0,1,18,26.27h6.41a1.11,1.11,0,0,0,1.11-1.1V22.33l6.46,6.46A1.1,1.1,0,0,1,31.93,30.35Z" style="fill:#f98c91"/></g></g></svg>