<?xml version="1.0" encoding="utf-8"?>
<!-- Generator: Adobe Illustrator 23.0.1, SVG Export Plug-In . SVG Version: 6.00 Build 0)  -->
<svg version="1.1" id="Layer_1" xmlns="http://www.w3.org/2000/svg" xmlns:xlink="http://www.w3.org/1999/xlink" x="0px" y="0px"
	 viewBox="0 0 461 319" style="enable-background:new 0 0 461 319;" xml:space="preserve">
<style type="text/css">
	.st0{fill:#58595B;}
	.st1{fill:url(#SVGID_1_);}
	.st2{fill:url(#SVGID_2_);}
	.st3{fill:url(#SVGID_3_);}
	.st4{fill:url(#SVGID_4_);}
</style>
<g>
	<g>
		<path class="st0" d="M25.6,251.1c-0.3,0-0.7,0-1.2-0.1s-1.1-0.2-1.6-0.4c-0.3,1.6-0.8,3.1-1.6,4.5c-0.8,1.4-1.7,2.7-2.9,4
			s-2.4,2.4-3.9,3.4c-1.5,1-3,2-4.6,2.8l-3.5-4.8c0.9-0.5,1.8-1,2.7-1.5c0.9-0.5,1.8-1.1,2.6-1.7s1.6-1.2,2.3-1.9
			c0.7-0.7,1.3-1.3,1.9-2s1-1.4,1.3-2.1c0.3-0.7,0.5-1.5,0.5-2.2c0,0,0-0.1,0-0.2c0-0.1,0-0.2,0-0.2s0-0.1,0-0.2c0,0,0,0,0,0v0
			c-0.1-0.7-0.2-1.4-0.4-2.1c-0.2-0.7-0.4-1.4-0.6-2.1s-0.5-1.4-0.9-2.2s-0.7-1.6-1.1-2.5l5.5-2.4c0.5,1.5,1,2.8,1.4,3.8
			c0.4,1,0.9,1.8,1.3,2.4c0.4,0.6,0.9,1,1.3,1.3s0.9,0.4,1.4,0.4h0.1c0.4,0,0.8,0.1,1.2,0.2c0.4,0.2,0.7,0.4,1,0.7s0.5,0.6,0.6,1
			c0.2,0.4,0.2,0.8,0.2,1.2c0,0.4-0.1,0.8-0.2,1.2c-0.2,0.4-0.4,0.7-0.6,1c-0.3,0.3-0.6,0.5-1,0.6C26.4,251,26,251.1,25.6,251.1z"/>
		<path class="st0" d="M22.3,248.1c0-0.4,0.1-0.8,0.2-1.2c0.2-0.4,0.4-0.7,0.7-1c0.3-0.3,0.6-0.5,1-0.6s0.8-0.2,1.2-0.2h17.3
			c0.4,0,0.8,0.1,1.2,0.2s0.7,0.4,1,0.6c0.3,0.3,0.5,0.6,0.7,1c0.2,0.4,0.2,0.8,0.2,1.2s-0.1,0.8-0.2,1.2c-0.2,0.4-0.4,0.7-0.7,1
			c-0.3,0.3-0.6,0.5-1,0.6c-0.4,0.2-0.8,0.2-1.2,0.2H25.4c-0.4,0-0.8-0.1-1.2-0.2c-0.4-0.2-0.7-0.4-1-0.6c-0.3-0.3-0.5-0.6-0.7-1
			C22.4,248.9,22.3,248.5,22.3,248.1z"/>
		<path class="st0" d="M39.7,248.1c0-0.4,0.1-0.8,0.2-1.2c0.2-0.4,0.4-0.7,0.6-1c0.3-0.3,0.6-0.5,1-0.6s0.8-0.2,1.2-0.2h1
			c0-0.8,0.2-1.8,0.4-2.7s0.5-2,0.9-3c0.4-1,0.8-2,1.4-2.9c0.5-0.9,1.1-1.8,1.7-2.5s1.3-1.3,2.1-1.8c0.7-0.5,1.5-0.7,2.3-0.8
			c0.9,0,1.6,0.3,2.4,0.7c0.7,0.5,1.4,1.1,1.9,1.8s1,1.6,1.3,2.6c0.3,1,0.5,1.9,0.5,2.9c0,1.2-0.3,2.3-0.8,3.4
			c-0.5,1.1-1.2,2.1-2,3.1c-0.8,0.9-1.8,1.8-2.8,2.6c-1,0.8-2.1,1.4-3.2,1.9c0.1,0.3,0.3,0.7,0.6,1.1c0.3,0.4,0.6,0.9,1,1.3
			c0.4,0.4,0.7,0.8,1.1,1.2s0.7,0.7,0.9,0.9c0-0.7,0.1-1.5,0.3-2.3c0.2-0.8,0.5-1.5,1-2.2c0.4-0.7,0.9-1.4,1.5-2
			c0.6-0.6,1.2-1.2,1.8-1.7c0.6-0.5,1.3-0.8,2-1.1s1.4-0.4,2-0.4c0.4,0,0.8,0.1,1.2,0.2c0.4,0.2,0.7,0.4,1,0.6
			c0.3,0.3,0.5,0.6,0.6,1c0.2,0.4,0.2,0.8,0.2,1.2s-0.1,0.8-0.2,1.2c-0.2,0.4-0.4,0.7-0.6,1c-0.3,0.3-0.6,0.5-1,0.6
			c-0.4,0.2-0.8,0.2-1.2,0.2h-0.1c-0.6,0.1-1.1,0.3-1.6,0.6c-0.5,0.3-1,0.7-1.4,1.1c-0.4,0.5-0.7,1-1,1.5c-0.2,0.6-0.4,1.1-0.4,1.7
			c0,0.3,0,0.5,0.1,0.7s0.1,0.4,0.2,0.7c0.1,0.2,0.2,0.5,0.4,0.7c0.2,0.3,0.4,0.5,0.7,0.8l-3.5,4.3c-1.5-0.9-2.9-1.9-4-2.8
			c-1.2-1-2.2-2-3-3c-0.8-1-1.6-2-2.1-3.1c-0.6-1-1.1-2.1-1.4-3.2h-0.1h-2c-0.4,0-0.8-0.1-1.2-0.2c-0.4-0.2-0.7-0.4-1-0.6
			c-0.3-0.3-0.5-0.6-0.6-1C39.8,248.9,39.7,248.5,39.7,248.1z M53.6,240.2c0-0.4,0-0.7,0-1.1s-0.1-0.8-0.2-1.2
			c-0.1-0.4-0.2-0.7-0.4-1c-0.2-0.3-0.4-0.5-0.6-0.7c-0.2,0.1-0.5,0.4-0.8,0.7s-0.6,0.8-0.9,1.3c-0.3,0.5-0.6,1.1-0.8,1.7
			c-0.3,0.6-0.5,1.2-0.7,1.8c-0.2,0.6-0.4,1.2-0.5,1.8s-0.2,1.1-0.2,1.6c0.5-0.1,1.1-0.3,1.7-0.6c0.6-0.3,1.1-0.7,1.6-1.1
			c0.5-0.5,0.9-1,1.3-1.5C53.4,241.3,53.6,240.8,53.6,240.2z"/>
		<path class="st0" d="M58.8,248.1c0-0.4,0.1-0.8,0.2-1.2c0.2-0.4,0.4-0.7,0.6-1s0.6-0.5,1-0.6s0.8-0.2,1.2-0.2h1.5
			c0.9,0,1.8,0,2.6-0.1c0.8-0.1,1.6-0.2,2.2-0.5c0.6-0.2,1.2-0.6,1.6-1c0.4-0.5,0.6-1.1,0.6-1.8c0-0.3,0-0.5,0-0.7
			c0-0.2,0-0.4-0.1-0.7c-0.1-0.3-0.2-0.6-0.3-1c-0.1-0.4-0.3-1-0.5-1.8l5.6-1.6c0.2,0.6,0.5,1.4,0.7,2.4c0.2,1,0.4,2.1,0.5,3.3
			c0,0.4,0.1,0.8,0.1,1.2c0.1,0.4,0.2,0.8,0.3,1.1s0.3,0.6,0.6,0.8c0.3,0.2,0.6,0.3,1,0.3c0.4,0,0.8,0.1,1.2,0.2
			c0.4,0.2,0.7,0.4,1,0.6c0.3,0.3,0.5,0.6,0.6,1s0.2,0.8,0.2,1.2s-0.1,0.8-0.2,1.2s-0.4,0.7-0.7,1c-0.3,0.3-0.6,0.5-1,0.6
			c-0.4,0.2-0.7,0.2-1.2,0.2c-1.2,0-2.3-0.2-3.1-0.6c-0.9-0.4-1.6-0.9-2.2-1.5c-0.6,0.4-1.2,0.7-2,1c-0.7,0.3-1.5,0.5-2.4,0.6
			c-0.8,0.2-1.7,0.3-2.6,0.3c-0.9,0.1-1.8,0.1-2.6,0.1h-1.5c-0.4,0-0.8-0.1-1.2-0.2c-0.4-0.2-0.7-0.4-1-0.6c-0.3-0.3-0.5-0.6-0.6-1
			C58.8,248.9,58.8,248.5,58.8,248.1z M73.4,260.8l-3.6-3.6l-3.6,3.6l-3.7-3.7l3.7-3.7l3.6,3.6l3.6-3.6l3.7,3.7L73.4,260.8z
			 M69.8,259.3l3.4,3.4l-3.4,3.4l-3.4-3.4L69.8,259.3z"/>
		<path class="st0" d="M75.2,248.1c0-0.4,0.1-0.8,0.2-1.2s0.4-0.7,0.7-1c0.3-0.3,0.6-0.5,1-0.6c0.4-0.2,0.8-0.2,1.2-0.2h17.3
			c0.4,0,0.8,0.1,1.2,0.2s0.7,0.4,1,0.6c0.3,0.3,0.5,0.6,0.7,1c0.2,0.4,0.2,0.8,0.2,1.2s-0.1,0.8-0.2,1.2c-0.2,0.4-0.4,0.7-0.7,1
			c-0.3,0.3-0.6,0.5-1,0.6c-0.4,0.2-0.8,0.2-1.2,0.2H78.3c-0.4,0-0.8-0.1-1.2-0.2c-0.4-0.2-0.7-0.4-1-0.6c-0.3-0.3-0.5-0.6-0.7-1
			S75.2,248.5,75.2,248.1z"/>
		<path class="st0" d="M92.7,248.1c0-0.4,0.1-0.8,0.2-1.1c0.2-0.4,0.4-0.7,0.6-0.9c0.3-0.3,0.6-0.5,0.9-0.7c0.3-0.2,0.7-0.3,1.1-0.3
			c1,0,1.8-0.3,2.4-0.8c0.7-0.5,1.2-1.2,1.7-2c0.5-0.8,0.9-1.8,1.2-2.9c0.3-1.1,0.6-2.2,0.9-3.3l5.1,0.9c-0.1,0.4-0.2,1-0.4,1.6
			s-0.3,1.2-0.4,1.8c-0.1,0.6-0.2,1.3-0.3,1.9s-0.1,1.1,0,1.6c0,0.5,0.2,0.8,0.4,1.1c0.2,0.3,0.5,0.4,0.9,0.3c0.5,0,1-0.2,1.4-0.5
			c0.4-0.3,0.8-0.7,1.1-1.2c0.3-0.5,0.6-1.1,0.9-1.7c0.3-0.6,0.5-1.3,0.7-1.9s0.3-1.3,0.5-2c0.1-0.6,0.2-1.2,0.3-1.8l4.8,0.8
			c0,0.4-0.1,0.9-0.1,1.4c-0.1,0.6-0.1,1.1-0.2,1.8s-0.1,1.2-0.1,1.9s0.1,1.2,0.2,1.7c0.1,0.5,0.4,0.9,0.7,1.2
			c0.3,0.3,0.8,0.5,1.4,0.5c0.4,0,0.7-0.1,1.1-0.2s0.7-0.3,1-0.5c0.3-0.2,0.5-0.5,0.7-0.8c0.2-0.3,0.3-0.6,0.3-1
			c0-0.7-0.1-1.4-0.3-2.2c-0.2-0.8-0.5-1.6-0.8-2.4c-0.3-0.8-0.6-1.5-1-2.2c-0.3-0.7-0.6-1.3-0.8-1.8l4.7-2.7
			c0.1,0.2,0.2,0.5,0.4,0.9c0.2,0.4,0.4,0.9,0.6,1.5c0.2,0.6,0.5,1.2,0.8,2c0.3,0.7,0.5,1.5,0.7,2.3c0.2,0.8,0.4,1.6,0.5,2.4
			c0.1,0.8,0.2,1.6,0.2,2.4c0,1.3-0.2,2.4-0.5,3.4c-0.4,1-0.9,1.9-1.6,2.6s-1.6,1.3-2.7,1.7c-1.1,0.4-2.3,0.6-3.7,0.6
			c-0.7,0-1.3-0.1-1.9-0.2c-0.6-0.1-1.1-0.3-1.5-0.6c-0.4-0.2-0.8-0.5-1.2-0.8c-0.4-0.3-0.7-0.7-0.9-1c-0.3,0.4-0.6,0.7-1,1.1
			c-0.4,0.3-0.8,0.6-1.2,0.8s-1,0.4-1.5,0.5c-0.6,0.1-1.2,0.2-1.9,0.2c-0.6,0-1.2,0-1.7-0.2c-0.5-0.1-1-0.3-1.4-0.5
			c-0.4-0.2-0.8-0.5-1.1-0.8c-0.3-0.3-0.7-0.7-0.9-1.1c-0.3,0.3-0.6,0.6-0.9,0.9s-0.8,0.5-1.2,0.8s-1,0.4-1.6,0.5
			c-0.6,0.1-1.3,0.2-2.2,0.2h-0.3c-0.4,0-0.8-0.1-1.1-0.3c-0.4-0.2-0.7-0.4-0.9-0.6c-0.3-0.3-0.5-0.6-0.6-0.9
			C92.8,248.9,92.7,248.5,92.7,248.1z"/>
		<path class="st0" d="M181.6,245.1c0.4,0,0.8,0.1,1.2,0.2s0.7,0.4,1,0.6s0.5,0.6,0.6,1s0.2,0.8,0.2,1.2s-0.1,0.8-0.2,1.2
			s-0.4,0.7-0.6,1c-0.3,0.3-0.6,0.5-1,0.6c-0.4,0.2-0.8,0.2-1.2,0.2c-2,0-3.9-0.3-5.6-1c-1.7-0.7-3.2-1.7-4.4-3
			c-0.5,0.5-1,0.9-1.5,1.2s-1.2,0.6-1.8,0.9c-0.7,0.3-1.5,0.6-2.3,0.8c-0.8,0.2-1.8,0.4-2.8,0.6c-1,0.2-2.2,0.3-3.4,0.4
			c-1.2,0.1-2.6,0.1-4.2,0.1c-1.2,0-2.3-0.1-3.3-0.1c-1-0.1-2-0.2-2.8-0.3c-0.9-0.1-1.7-0.3-2.5-0.5c-0.8-0.2-1.5-0.4-2.2-0.7
			c-2.9-1.1-4.9-2.8-6-4.9v0c-0.6-1.2-0.9-2.5-0.9-3.9c0-0.6,0.1-1.3,0.2-2c0.2-0.7,0.3-1.4,0.6-2.1c0.1-0.3,0.2-0.6,0.3-0.9
			c0.1-0.2,0.2-0.4,0.3-0.6c0.1-0.2,0.2-0.4,0.4-0.6s0.3-0.5,0.5-0.8l4.5,3.3c-0.2,0.3-0.3,0.6-0.5,0.9c-0.2,0.3-0.4,0.7-0.6,1
			c-0.2,0.4-0.3,0.7-0.4,1.1c-0.1,0.4-0.2,0.7-0.2,1.1c0,0.5,0.2,1,0.6,1.4c0.4,0.4,1,0.8,1.7,1.1c0.7,0.3,1.6,0.5,2.5,0.7
			s2,0.4,3,0.5s2.2,0.2,3.3,0.3s2.2,0.1,3.2,0.1c1,0,1.9,0,2.9-0.1c0.9-0.1,1.8-0.2,2.6-0.3c0.8-0.1,1.5-0.3,2.2-0.4
			s1.1-0.3,1.5-0.4h0c1-0.4,1.6-0.8,2.1-1.3c0.4-0.5,0.6-1,0.6-1.5c0-0.6-0.1-1.2-0.4-1.9c-0.3-0.7-0.7-1.3-1.2-2
			c-0.5-0.7-1-1.4-1.6-2.1c-0.6-0.7-1.2-1.3-1.9-1.9s-1.3-1.2-1.9-1.7c-0.6-0.5-1.2-1-1.7-1.4l0.6-5.2l17.6-7.4l2.1,5.3l-14.6,5.9
			c0.9,0.7,1.8,1.5,2.5,2.2c0.8,0.8,1.5,1.5,2.1,2.3c0.6,0.8,1.2,1.6,1.7,2.5s1,1.8,1.4,2.7v0c0.2,0.5,0.4,1.1,0.7,1.7
			c0.3,0.6,0.6,1.1,1,1.7c0.4,0.5,0.8,1,1.2,1.5c0.4,0.5,0.9,0.8,1.5,1.2h0c0.4,0.2,0.9,0.3,1.3,0.4c0.5,0.1,1,0.2,1.7,0.2H181.6z"
			/>
		<path class="st0" d="M178.5,248.1c0-0.4,0.1-0.8,0.2-1.2c0.2-0.4,0.4-0.7,0.6-1s0.6-0.5,1-0.6s0.8-0.2,1.2-0.2h1.5
			c0.9,0,1.8,0,2.6-0.1c0.8-0.1,1.6-0.2,2.2-0.5c0.6-0.2,1.2-0.6,1.6-1c0.4-0.5,0.6-1.1,0.6-1.8c0-0.3,0-0.5,0-0.7
			c0-0.2,0-0.4-0.1-0.7c-0.1-0.3-0.2-0.6-0.3-1c-0.1-0.4-0.3-1-0.5-1.8l5.6-1.6c0.2,0.6,0.5,1.4,0.7,2.4c0.2,1,0.4,2.1,0.5,3.3
			c0,0.4,0.1,0.8,0.1,1.2c0.1,0.4,0.2,0.8,0.3,1.1s0.3,0.6,0.6,0.8c0.3,0.2,0.6,0.3,1,0.3c0.4,0,0.8,0.1,1.2,0.2
			c0.4,0.2,0.7,0.4,1,0.6c0.3,0.3,0.5,0.6,0.6,1s0.2,0.8,0.2,1.2s-0.1,0.8-0.2,1.2s-0.4,0.7-0.7,1c-0.3,0.3-0.6,0.5-1,0.6
			c-0.4,0.2-0.7,0.2-1.2,0.2c-1.2,0-2.3-0.2-3.1-0.6c-0.9-0.4-1.6-0.9-2.2-1.5c-0.6,0.4-1.2,0.7-2,1c-0.7,0.3-1.5,0.5-2.4,0.6
			c-0.8,0.2-1.7,0.3-2.6,0.3c-0.9,0.1-1.8,0.1-2.6,0.1h-1.5c-0.4,0-0.8-0.1-1.2-0.2c-0.4-0.2-0.7-0.4-1-0.6c-0.3-0.3-0.5-0.6-0.6-1
			C178.6,248.9,178.5,248.5,178.5,248.1z M196.8,258l-3.7,3.7l-3.6-3.6l-3.6,3.6l-3.7-3.7l3.7-3.7l3.6,3.6l3.6-3.6L196.8,258z"/>
		<path class="st0" d="M194.9,248.1c0-0.4,0.1-0.8,0.2-1.2s0.4-0.7,0.6-1s0.6-0.5,1-0.6s0.8-0.2,1.2-0.2h2h0.9c0.5,0,1,0,1.5-0.1
			s1-0.1,1.5-0.2c0.5-0.1,0.9-0.3,1.2-0.5c0.4-0.2,0.6-0.5,0.8-0.8c0.1-0.2,0.2-0.6,0.2-1c0-0.3-0.1-0.8-0.3-1.4
			c-0.2-0.6-0.4-1.3-0.7-2c-0.3-0.7-0.6-1.5-1-2.3s-0.7-1.6-1.1-2.3l5.5-2.7c0.4,0.8,0.7,1.7,1.1,2.6c0.3,0.9,0.7,1.8,0.9,2.7
			c0.3,0.9,0.5,1.9,0.7,2.8c0.2,0.9,0.3,1.8,0.3,2.6c0,1.3-0.2,2.5-0.7,3.5c-0.5,1.2-1.3,2.2-2.2,3c-0.9,0.8-2,1.4-3.3,1.7
			c-0.8,0.2-1.5,0.3-2.2,0.4c-0.7,0-1.4,0.1-2,0.1h-2.6h-0.2c-0.4,0-0.8-0.1-1.2-0.2c-0.4-0.2-0.7-0.4-1-0.6c-0.3-0.3-0.5-0.6-0.6-1
			S194.9,248.5,194.9,248.1z M204.4,220.9l4.2,4.2l-4.2,4.2l-4.2-4.2L204.4,220.9z"/>
		<path class="st0" d="M212.1,258.7c1.8-0.4,3.4-0.8,4.9-1.3s2.8-1.1,3.9-1.8c1.1-0.7,2-1.4,2.8-2.1c0.7-0.8,1.3-1.5,1.6-2.3
			c-0.5,0-1.1,0-1.7,0c-0.6,0-1.1,0-1.5-0.1c-1.5-0.1-2.8-0.5-4-1c-1.2-0.5-2.2-1.2-2.9-2.1c-0.5-0.7-0.9-1.4-1.1-2.2
			s-0.3-1.6-0.3-2.5c0-0.7,0.1-1.4,0.2-2.1c0.1-0.7,0.3-1.4,0.5-2c0.2-0.7,0.5-1.3,0.8-1.9c0.3-0.6,0.6-1.1,1-1.6
			c0.8-1,1.6-1.7,2.5-2.2c0.9-0.5,1.9-0.7,2.9-0.7c2.2,0,4.1,0.9,5.8,2.8c0.6,0.7,1.2,1.5,1.6,2.3c0.5,0.9,0.9,1.8,1.2,2.7
			c0.3,1,0.6,2,0.8,3c0.2,1,0.3,2.1,0.3,3.2c0,0.3,0,0.7,0,1c0,0.3,0,0.6-0.1,0.9c-0.2,1.5-0.5,2.9-1,4.2s-1.2,2.5-2,3.6
			c-0.8,1.1-1.7,2.1-2.8,3c-1.1,0.9-2.2,1.7-3.5,2.4c-1.3,0.7-2.6,1.3-4,1.7s-2.8,0.8-4.3,1L212.1,258.7z M221.4,238.7
			c-0.3-0.1-0.6,0-0.9,0.3c-0.3,0.2-0.7,0.6-1,1c-0.3,0.4-0.5,0.8-0.7,1.3c-0.2,0.5-0.3,0.9-0.3,1.4c0,0.4,0.1,0.8,0.4,1
			c0.2,0.3,0.6,0.5,0.9,0.7c0.4,0.2,0.8,0.3,1.2,0.4s0.9,0.2,1.3,0.2h0c0.3,0,0.7,0,1.1,0c0.4,0,0.8,0,1.3,0c0.1,0,0.2,0,0.3,0
			c0.1,0,0.1,0,0.2,0s0.1,0,0.2,0c0.1,0,0.1,0,0.3,0c-0.2-0.8-0.4-1.5-0.7-2.3c-0.3-0.7-0.6-1.4-0.9-1.9c-0.3-0.6-0.7-1-1.2-1.4
			S222,238.8,221.4,238.7z"/>
		<path class="st0" d="M247.3,251.1c-0.3,0-0.7,0-1.2-0.1c-0.5,0-1.1-0.2-1.6-0.4c-0.3,1.6-0.8,3.1-1.6,4.5c-0.8,1.4-1.7,2.7-2.9,4
			s-2.4,2.4-3.9,3.4c-1.5,1-3,2-4.6,2.8l-3.5-4.8c0.9-0.5,1.8-1,2.7-1.5s1.8-1.1,2.6-1.7c0.8-0.6,1.6-1.2,2.3-1.9
			c0.7-0.7,1.3-1.3,1.9-2c0.5-0.7,1-1.4,1.3-2.1c0.3-0.7,0.5-1.5,0.5-2.2c0,0,0-0.1,0-0.2c0-0.1,0-0.2,0-0.2s0-0.1,0-0.2
			c0,0,0,0,0,0v0c-0.1-0.7-0.2-1.4-0.4-2.1s-0.4-1.4-0.6-2.1s-0.5-1.4-0.9-2.2s-0.7-1.6-1.1-2.5l5.5-2.4c0.5,1.5,1,2.8,1.4,3.8
			c0.4,1,0.9,1.8,1.3,2.4c0.4,0.6,0.9,1,1.3,1.3s0.9,0.4,1.4,0.4h0.1c0.4,0,0.8,0.1,1.2,0.2c0.4,0.2,0.7,0.4,1,0.7
			c0.3,0.3,0.5,0.6,0.6,1s0.2,0.8,0.2,1.2c0,0.4-0.1,0.8-0.2,1.2s-0.4,0.7-0.6,1c-0.3,0.3-0.6,0.5-1,0.6
			C248.2,251,247.8,251.1,247.3,251.1z"/>
		<path class="st0" d="M244,248.1c0-0.4,0.1-0.8,0.2-1.2s0.4-0.7,0.6-1s0.6-0.5,1-0.6s0.8-0.2,1.2-0.2h1.5c0.9,0,1.8,0,2.6-0.1
			c0.8-0.1,1.6-0.2,2.2-0.5c0.6-0.2,1.2-0.6,1.6-1c0.4-0.5,0.6-1.1,0.6-1.8c0-0.3,0-0.5,0-0.7c0-0.2,0-0.4-0.1-0.7
			c-0.1-0.3-0.2-0.6-0.3-1c-0.1-0.4-0.3-1-0.5-1.8l5.6-1.6c0.2,0.6,0.5,1.4,0.7,2.4c0.2,1,0.4,2.1,0.5,3.3c0,0.4,0.1,0.8,0.1,1.2
			s0.2,0.8,0.3,1.1s0.3,0.6,0.6,0.8c0.3,0.2,0.6,0.3,1,0.3c0.4,0,0.8,0.1,1.2,0.2s0.7,0.4,1,0.6c0.3,0.3,0.5,0.6,0.6,1
			s0.2,0.8,0.2,1.2s-0.1,0.8-0.2,1.2s-0.4,0.7-0.7,1c-0.3,0.3-0.6,0.5-1,0.6c-0.4,0.2-0.7,0.2-1.2,0.2c-1.2,0-2.3-0.2-3.1-0.6
			c-0.9-0.4-1.6-0.9-2.2-1.5c-0.6,0.4-1.2,0.7-2,1c-0.7,0.3-1.5,0.5-2.4,0.6c-0.8,0.2-1.7,0.3-2.6,0.3c-0.9,0.1-1.8,0.1-2.6,0.1H247
			c-0.4,0-0.8-0.1-1.2-0.2c-0.4-0.2-0.7-0.4-1-0.6c-0.3-0.3-0.5-0.6-0.6-1S244,248.5,244,248.1z M263,229.7l-3.7,3.7l-3.6-3.6
			l-3.6,3.6l-3.7-3.7l3.7-3.7l3.6,3.6l3.6-3.6L263,229.7z"/>
		<path class="st0" d="M260.8,248.1c0-0.4,0.1-0.8,0.2-1.2s0.4-0.7,0.7-1c0.3-0.3,0.6-0.5,1-0.6s0.8-0.2,1.2-0.2h0.2h6.3
			c0.4,0,0.8-0.1,1.3-0.2c0.5-0.2,0.9-0.4,1.4-0.6c0.4-0.2,0.8-0.5,1.1-0.8s0.5-0.6,0.6-0.9c0-0.6-0.1-1.3-0.3-2.1s-0.6-1.5-1.1-2.3
			c-0.5-0.8-1-1.5-1.7-2.3c-0.6-0.8-1.3-1.5-1.9-2.2c-0.7-0.7-1.3-1.3-2-1.9c-0.7-0.6-1.3-1.1-1.9-1.5l0.5-5.3l17.5-7.4l2.2,5.3
			l-14.5,5.9c0.9,0.8,1.7,1.6,2.4,2.4c0.7,0.8,1.4,1.5,2,2.3s1.1,1.5,1.6,2.3s0.9,1.6,1.4,2.4l0.2,0.3l0,0c0.3,0.5,0.6,1.1,0.9,1.6
			c0.3,0.5,0.6,1.1,0.9,1.6c0.3,0.5,0.6,0.9,1,1.3c0.4,0.4,0.8,0.8,1.2,1.1c0.4,0.3,0.9,0.6,1.4,0.8c0.5,0.2,1,0.3,1.6,0.3h0h0.8
			c0.4,0,0.8,0.1,1.2,0.2s0.7,0.4,1,0.6c0.3,0.3,0.5,0.6,0.6,1c0.2,0.4,0.2,0.8,0.2,1.2s-0.1,0.8-0.2,1.2c-0.2,0.4-0.4,0.7-0.6,1
			c-0.3,0.3-0.6,0.5-1,0.6c-0.4,0.2-0.8,0.2-1.2,0.2h-0.2c-1,0-1.8-0.1-2.6-0.2c-0.8-0.1-1.5-0.3-2.2-0.6c-0.8-0.3-1.5-0.7-2.1-1.1
			c-0.7-0.5-1.3-1-1.9-1.6c-0.1,0.2-0.3,0.4-0.5,0.6c-0.2,0.2-0.4,0.4-0.5,0.6c-0.5,0.4-1,0.8-1.5,1.1s-1.1,0.5-1.6,0.7
			c-0.6,0.2-1.1,0.3-1.7,0.4c-0.6,0.1-1.2,0.1-1.8,0.2h-6.2c-0.4,0-0.8-0.1-1.2-0.2c-0.4-0.2-0.7-0.4-1-0.6c-0.3-0.3-0.5-0.6-0.7-1
			S260.8,248.5,260.8,248.1z"/>
		<path class="st0" d="M283.6,248.1c0-0.4,0.1-0.8,0.2-1.2s0.4-0.7,0.6-1c0.3-0.3,0.6-0.5,1-0.6s0.8-0.2,1.2-0.2h0.2h0.9
			c0.6,0,1.1-0.1,1.5-0.2c0.5-0.1,0.8-0.2,0.9-0.4v0c0.2-0.2,0.4-0.6,0.5-1.1s0.2-1.2,0.2-2c0-0.1,0-0.5-0.1-1.1s-0.1-1.5-0.1-2.4
			c-0.1-1-0.1-2.1-0.2-3.3c-0.1-1.2-0.2-2.4-0.2-3.7s-0.2-2.4-0.2-3.6c-0.1-1.2-0.2-2.2-0.2-3.1c-0.1-0.9-0.1-1.6-0.2-2.1
			c0-0.5-0.1-0.8-0.1-0.7l6.1-1.5c0,0.2,0.1,0.7,0.1,1.4c0.1,0.7,0.1,1.7,0.2,2.8s0.2,2.3,0.3,3.7c0.1,1.3,0.2,2.7,0.2,4.1l0.3,9.5
			c0,0.5,0,1.1,0,1.8c0,0.6-0.1,1.3-0.3,1.9c-0.2,0.7-0.4,1.3-0.7,2c-0.3,0.6-0.8,1.3-1.3,1.8c-1.6,1.6-3.8,2.3-6.6,2.3h-0.9h-0.2
			c-0.4,0-0.8-0.1-1.2-0.2c-0.4-0.2-0.7-0.4-1-0.6c-0.3-0.3-0.5-0.6-0.6-1S283.6,248.5,283.6,248.1z"/>
		<path class="st0" d="M299.7,251.2c0.1-1,0.1-2.1,0.2-3.2c0.1-1.1,0.1-2.2,0.2-3.3c0-1.1,0.1-2.2,0.1-3.2c0-1,0-2,0-2.8
			c-0.1-1.8-0.2-3.4-0.2-4.8c-0.1-1.4-0.1-2.6-0.2-3.6c-0.1-1.1-0.1-2-0.2-2.8c-0.1-0.8-0.1-1.5-0.2-2.2c-0.1-0.7-0.2-1.3-0.2-1.9
			s-0.2-1.2-0.3-1.8l5.9-1.9c0.3,1.7,0.5,3.4,0.7,5.2c0.2,1.7,0.3,3.4,0.4,5c0.1,1.6,0.1,3.1,0.2,4.4c0,1.4,0,2.5,0,3.5
			c0,0.9,0,1.8,0,2.8c0,1,0,2.1,0,3.2s0,2.2-0.1,3.3s-0.1,2.2-0.2,3.3L299.7,251.2z"/>
		<path class="st0" d="M361.7,251.1c-2.1,0-3.9-0.3-5.3-1c-1.5-0.7-2.6-1.8-3.6-3.4c-1.8,1.5-4,2.7-6.6,3.4c-2.6,0.7-5.6,1.1-9,1.1
			c-2,0-3.9-0.1-5.8-0.4s-3.5-0.6-5-1.1c-1.5-0.5-2.8-1.1-3.9-1.9c-1.1-0.8-2-1.7-2.6-2.7c-0.4-0.7-0.7-1.5-0.9-2.3
			c-0.2-0.9-0.2-1.8-0.2-2.9c0.1-1,0.3-2.1,0.6-3.3c0.3-1.2,0.8-2.4,1.5-3.6l4.5,2.6c-0.3,0.5-0.5,1-0.7,1.5c-0.2,0.5-0.4,1-0.5,1.5
			c-0.1,0.5-0.2,1.1-0.2,1.6c0,0.6,0.1,1.2,0.3,1.9c0.3,0.5,0.9,1,1.7,1.4s1.8,0.7,3,0.9c1.2,0.2,2.4,0.4,3.8,0.5
			c1.4,0.1,2.8,0.2,4.3,0.2c1.3,0,2.6,0,3.8-0.1c1.2-0.1,2.3-0.2,3.3-0.5c1-0.2,1.9-0.5,2.7-0.8c0.8-0.3,1.5-0.7,2.1-1.2
			c0.5-0.4,1-0.9,1.3-1.4c0.3-0.5,0.6-1.1,0.9-1.7s0.4-1.2,0.6-1.8s0.3-1.3,0.5-1.9l5.3,1.4l-0.8,4c-0.1,0.6-0.1,1.1,0.1,1.6
			c0.2,0.5,0.5,0.9,0.9,1.3s1,0.6,1.6,0.9c0.6,0.2,1.4,0.3,2.2,0.3c0.4,0,0.8,0.1,1.2,0.2s0.7,0.4,1,0.6c0.3,0.3,0.5,0.6,0.6,1
			s0.2,0.8,0.2,1.2s-0.1,0.8-0.2,1.2s-0.4,0.7-0.6,1c-0.3,0.3-0.6,0.5-1,0.6c-0.4,0.2-0.8,0.2-1.2,0.2H361.7z M346.1,231.2l-3.7,3.7
			l-3.6-3.6l-3.6,3.6l-3.7-3.7l3.7-3.7l3.6,3.6l3.6-3.6L346.1,231.2z"/>
		<path class="st0" d="M358.8,248.1c0-0.4,0.1-0.8,0.2-1.2s0.4-0.7,0.6-1c0.3-0.3,0.6-0.5,1-0.6c0.4-0.2,0.8-0.2,1.2-0.2h3.7
			c2.1,0,4-0.1,5.7-0.4s3.3-0.6,4.8-1c1.5-0.4,2.9-0.9,4.3-1.5s2.7-1.1,4-1.7c-0.9-0.2-1.7-0.5-2.6-0.9s-1.7-0.7-2.6-1
			c-0.9-0.3-1.7-0.6-2.6-0.8c-0.9-0.2-1.7-0.4-2.6-0.4c-0.6,0-1.2,0.2-1.7,0.5c-0.6,0.3-1.1,0.7-1.5,1.1s-0.8,0.8-1.2,1.2
			c-0.3,0.4-0.5,0.7-0.6,0.8l-4.4-2.8c0.5-0.9,1.1-1.7,1.7-2.5s1.4-1.5,2.2-2.2c0.8-0.6,1.7-1.1,2.6-1.5s1.9-0.6,2.9-0.6
			c0.8,0,1.5,0.1,2.3,0.2s1.5,0.4,2.2,0.6c0.7,0.3,1.5,0.5,2.2,0.9s1.4,0.7,2.2,1c0.7,0.3,1.4,0.6,2.1,0.9c0.7,0.3,1.4,0.6,2.1,0.9
			s1.5,0.5,2.3,0.6c0.8,0.2,1.6,0.3,2.5,0.3l-0.5,5.9l-2.7,1.3c-1.1,0.5-2.2,1.1-3.3,1.7s-2.2,1.1-3.4,1.6c-1.1,0.5-2.3,1-3.5,1.5
			c-1.2,0.5-2.5,0.9-3.8,1.2c-1.3,0.4-2.7,0.6-4.2,0.8s-3.1,0.3-4.7,0.3h-3.5h-0.2c-0.4,0-0.8-0.1-1.2-0.2c-0.4-0.2-0.7-0.4-1-0.6
			c-0.3-0.3-0.5-0.6-0.6-1S358.8,248.5,358.8,248.1z M373.1,221l4.2,4.2l-4.2,4.2l-4.2-4.2L373.1,221z"/>
		<path class="st0" d="M393.9,251.2c0.1-1,0.1-2.1,0.2-3.2c0.1-1.1,0.1-2.2,0.2-3.3c0-1.1,0.1-2.2,0.1-3.2c0-1,0-2,0-2.8
			c-0.1-1.8-0.2-3.4-0.2-4.8c-0.1-1.4-0.1-2.6-0.2-3.6c-0.1-1.1-0.1-2-0.2-2.8c-0.1-0.8-0.1-1.5-0.2-2.2c-0.1-0.7-0.2-1.3-0.2-1.9
			s-0.2-1.2-0.3-1.8l5.9-1.9c0.3,1.7,0.5,3.4,0.7,5.2c0.2,1.7,0.3,3.4,0.4,5c0.1,1.6,0.1,3.1,0.2,4.4c0,1.4,0,2.5,0,3.5
			c0,0.9,0,1.8,0,2.8c0,1,0,2.1,0,3.2s0,2.2-0.1,3.3s-0.1,2.2-0.2,3.3L393.9,251.2z"/>
		<path class="st0" d="M404.7,242.2c0.5,0.3,1.2,0.7,1.9,1c0.7,0.3,1.5,0.7,2.2,0.9c0.8,0.3,1.5,0.5,2.2,0.7
			c0.7,0.2,1.3,0.3,1.9,0.3c0.2,0,0.4,0,0.7,0c0.3,0,0.6-0.1,1-0.1c0.3-0.1,0.7-0.1,1-0.2c0.3-0.1,0.7-0.2,0.9-0.4
			c0.3-0.2,0.5-0.3,0.7-0.5c0.2-0.2,0.3-0.5,0.3-0.8c0-0.5-0.1-1.1-0.4-1.7c-0.3-0.6-0.7-1.3-1.3-2s-1.1-1.4-1.8-2.1
			c-0.7-0.7-1.4-1.4-2.1-2s-1.5-1.2-2.2-1.8c-0.7-0.6-1.4-1-2-1.4l3.4-5c1.2,0.9,2.5,1.8,3.7,2.9c1.2,1.1,2.3,2.2,3.4,3.4
			c1,1.2,1.9,2.4,2.7,3.7c0.8,1.3,1.3,2.6,1.6,3.9c0.1,0.4,0.2,0.7,0.2,1.1c0,0.4,0.1,0.7,0.1,1.1c0,1.2-0.2,2.3-0.7,3.3
			c-0.5,1-1.1,1.8-1.9,2.6c-0.8,0.7-1.8,1.3-3,1.7s-2.4,0.6-3.8,0.6c-0.1,0-0.2,0-0.3,0c-0.1,0-0.2,0-0.3,0c-0.9,0-1.8-0.1-2.7-0.3
			c-0.9-0.2-1.8-0.4-2.7-0.7c-0.9-0.3-1.8-0.7-2.6-1.1c-0.8-0.4-1.6-0.8-2.4-1.3L404.7,242.2z"/>
		<path class="st0" d="M439,251.1c-0.3,0-0.7,0-1.2-0.1c-0.5,0-1.1-0.2-1.6-0.4c-0.3,1.6-0.8,3.1-1.6,4.5c-0.8,1.4-1.7,2.7-2.9,4
			s-2.4,2.4-3.9,3.4c-1.5,1-3,2-4.6,2.8l-3.5-4.8c0.9-0.5,1.8-1,2.7-1.5s1.8-1.1,2.6-1.7c0.8-0.6,1.6-1.2,2.3-1.9
			c0.7-0.7,1.3-1.3,1.9-2c0.5-0.7,1-1.4,1.3-2.1c0.3-0.7,0.5-1.5,0.5-2.2c0,0,0-0.1,0-0.2c0-0.1,0-0.2,0-0.2s0-0.1,0-0.2
			c0,0,0,0,0,0v0c-0.1-0.7-0.2-1.4-0.4-2.1s-0.4-1.4-0.6-2.1s-0.5-1.4-0.9-2.2s-0.7-1.6-1.1-2.5l5.5-2.4c0.5,1.5,1,2.8,1.4,3.8
			c0.4,1,0.9,1.8,1.3,2.4c0.4,0.6,0.9,1,1.3,1.3s0.9,0.4,1.4,0.4h0.1c0.4,0,0.8,0.1,1.2,0.2c0.4,0.2,0.7,0.4,1,0.7
			c0.3,0.3,0.5,0.6,0.6,1s0.2,0.8,0.2,1.2c0,0.4-0.1,0.8-0.2,1.2s-0.4,0.7-0.6,1c-0.3,0.3-0.6,0.5-1,0.6
			C439.8,251,439.4,251.1,439,251.1z"/>
		<path class="st0" d="M435.8,248.1c0-0.4,0.1-0.8,0.2-1.2s0.4-0.7,0.6-1c0.3-0.3,0.6-0.5,1-0.6s0.8-0.2,1.2-0.2h2.1h0.9
			c0.6,0,1.2,0,1.9-0.1s1.3-0.1,2-0.2c0.6-0.1,1.2-0.3,1.7-0.5s0.9-0.4,1.1-0.8c0.1-0.2,0.2-0.5,0.2-0.9c0-0.5-0.1-1.2-0.4-1.9
			c-0.3-0.8-0.6-1.5-0.9-2.3c-0.4-0.8-0.7-1.5-1.1-2.2c-0.4-0.7-0.7-1.3-0.9-1.8l5.4-2.7c0.4,0.7,0.8,1.5,1.1,2.4s0.7,1.9,1,2.9
			s0.5,2,0.7,2.9c0.2,0.9,0.3,1.8,0.3,2.5c0,1.3-0.2,2.5-0.7,3.5c-0.5,1.2-1.3,2.2-2.2,3c-0.9,0.8-2,1.4-3.3,1.7
			c-0.4,0.1-0.9,0.2-1.4,0.2c-0.6,0.1-1.2,0.1-1.7,0.1c-0.6,0-1.1,0-1.7,0.1c-0.5,0-0.9,0-1.2,0H439h-0.2c-0.4,0-0.8-0.1-1.2-0.2
			c-0.4-0.2-0.7-0.4-1-0.6c-0.3-0.3-0.5-0.6-0.6-1S435.8,248.5,435.8,248.1z M450.2,260.8l-3.6-3.6l-3.6,3.6l-3.7-3.7l3.7-3.7
			l3.6,3.6l3.6-3.6l3.7,3.7L450.2,260.8z M446.6,259.3l3.4,3.4l-3.4,3.4l-3.4-3.4L446.6,259.3z"/>
	</g>
	<g>
		<path class="st0" d="M20.7,294.3c-0.9-0.4-2.4-1-4.3-1c-2.2,0-3.2,1.1-3.2,2.3c0,1.4,1,2,4,3.4c3.9,1.8,5.6,4.2,5.6,7.2
			c0,4.5-3.4,7.7-9.4,7.7c-2.5,0-4.9-0.6-6.1-1.3l1-4.7c1.3,0.7,3.4,1.3,5.4,1.3c2.4,0,3.5-1,3.5-2.5c0-1.5-1.1-2.3-3.7-3.5
			c-3.9-1.8-5.9-4.2-5.9-7.1c0-4.2,3.2-7.5,8.9-7.5c2.4,0,4.2,0.5,5.4,1.1L20.7,294.3z"/>
		<path class="st0" d="M39.7,313.6h-14v-24.7h13.5v4.7h-7.9v4.9h7.5v4.6h-7.5v5.7h8.4V313.6z"/>
		<path class="st0" d="M43,289.3c1.6-0.3,3.8-0.5,6.6-0.5c3.3,0,5.6,0.5,7.3,1.9c1.6,1.3,2.5,3.4,2.5,5.7c0,6.9-5.6,8.5-9.4,8.5
			c-0.5,0-1,0-1.4-0.1v8.8H43V289.3z M48.5,300.4c0.4,0,0.7,0.1,1.3,0.1c2.6,0,4-1.6,4-3.8c0-2.3-1.4-3.5-3.6-3.5
			c-0.8,0-1.4,0.1-1.7,0.2V300.4z"/>
		<path class="st0" d="M76.3,313.6h-14v-24.7h13.5v4.7h-7.9v4.9h7.5v4.6h-7.5v5.7h8.4V313.6z"/>
		<path class="st0" d="M97.7,313.6h-5.6v-10.1h-7v10.1h-5.6v-24.7h5.6v9.5h7v-9.5h5.6V313.6z"/>
		<path class="st0" d="M114.3,302.1c1.7,0.7,2.6,2.3,3.1,4.6c0.6,2.6,1.3,5.9,1.8,6.9h-5.8c-0.3-0.7-1-2.9-1.5-5.8
			c-0.5-3-1.4-3.8-3.3-3.8h-1.1v9.6h-5.6v-24.3c1.7-0.3,4.1-0.5,6.7-0.5c3.3,0,9.7,0.4,9.7,7.1c0,2.9-1.8,5.2-4.1,6.1V302.1z
			 M109,299.9c2.4,0,3.7-1.5,3.7-3.5c0-2.8-2.1-3.3-3.4-3.3c-0.9,0-1.5,0.1-1.8,0.2v6.7H109z"/>
		<path class="st0" d="M142.1,313.6h-14v-24.7h13.5v4.7h-7.9v4.9h7.5v4.6h-7.5v5.7h8.4V313.6z"/>
		<path class="st0" d="M159.2,313.6h-13.8v-24.7h5.6v19.9h8.2V313.6z"/>
		<path class="st0" d="M175.9,313.6h-14v-24.7h13.5v4.7h-7.9v4.9h7.5v4.6h-7.5v5.7h8.4V313.6z"/>
		<path class="st0" d="M194.7,313.1c-0.9,0.4-2.8,0.8-5.2,0.8c-7.8,0-11.5-5.5-11.5-12.3c0-8.8,5.7-13,12.1-13
			c2.5,0,4.2,0.5,4.9,0.9l-1,4.6c-0.8-0.4-2-0.7-3.6-0.7c-3.5,0-6.5,2.4-6.5,8c0,5.1,2.6,7.8,6.5,7.8c1.3,0,2.7-0.3,3.6-0.6
			L194.7,313.1z"/>
		<path class="st0" d="M212.7,293.9h-5.6v19.8h-5.6v-19.8h-5.6v-4.9h16.8V293.9z"/>
		<path class="st0" d="M227.5,302.1c1.7,0.7,2.6,2.3,3.1,4.6c0.6,2.6,1.3,5.9,1.8,6.9h-5.8c-0.3-0.7-1-2.9-1.5-5.8
			c-0.5-3-1.4-3.8-3.3-3.8h-1.1v9.6h-5.6v-24.3c1.7-0.3,4.1-0.5,6.7-0.5c3.3,0,9.7,0.4,9.7,7.1c0,2.9-1.8,5.2-4.1,6.1V302.1z
			 M222.2,299.9c2.4,0,3.7-1.5,3.7-3.5c0-2.8-2.1-3.3-3.4-3.3c-0.9,0-1.5,0.1-1.8,0.2v6.7H222.2z"/>
		<path class="st0" d="M254.3,300.9c0,8.6-4.2,13-10.4,13c-6.8,0-10.1-5.9-10.1-12.6c0-7,3.8-12.7,10.5-12.7
			C251.4,288.6,254.3,294.9,254.3,300.9z M239.7,301.2c0,4.7,1.6,8.1,4.4,8.1s4.3-3.4,4.3-8.2c0-4.3-1.4-7.9-4.3-7.9
			C241.1,293.2,239.7,297,239.7,301.2z"/>
		<path class="st0" d="M275.6,313.6H270l-4.3-9c-1.1-2.4-2.6-5.6-3.4-8.1h-0.1c0.2,2.9,0.3,6.6,0.3,11v6.1h-5v-24.7h6l4.2,8.8
			c1.1,2.2,2.5,5.4,3.4,7.8h0.1c-0.3-2.9-0.5-6.7-0.5-10.8v-5.9h5V313.6z"/>
		<path class="st0" d="M279.8,288.9h5.6v24.7h-5.6V288.9z"/>
		<path class="st0" d="M305.2,313.1c-0.9,0.4-2.8,0.8-5.2,0.8c-7.8,0-11.5-5.5-11.5-12.3c0-8.8,5.7-13,12.1-13
			c2.5,0,4.2,0.5,4.9,0.9l-1,4.6c-0.8-0.4-2-0.7-3.6-0.7c-3.5,0-6.5,2.4-6.5,8c0,5.1,2.6,7.8,6.5,7.8c1.3,0,2.7-0.3,3.6-0.6
			L305.2,313.1z"/>
		<path class="st0" d="M314.4,289.3c1.6-0.3,3.8-0.5,6.6-0.5c3.3,0,5.6,0.5,7.3,1.9c1.6,1.3,2.5,3.4,2.5,5.7c0,6.9-5.6,8.5-9.4,8.5
			c-0.5,0-1,0-1.4-0.1v8.8h-5.6V289.3z M320,300.4c0.4,0,0.7,0.1,1.3,0.1c2.6,0,4-1.6,4-3.8c0-2.3-1.4-3.5-3.6-3.5
			c-0.8,0-1.4,0.1-1.7,0.2V300.4z"/>
		<path class="st0" d="M351.8,313.6H346l-1.4-5.7h-5.7l-1.3,5.7h-5.7l6.5-24.7h7.1L351.8,313.6z M343.9,303.6l-1.1-4.9
			c-0.3-1.5-0.7-3.7-1.1-5.2h-0.1c-0.3,1.5-0.7,3.8-1,5.2l-1.1,4.9H343.9z"/>
		<path class="st0" d="M370.5,288.9l-7,14.7v9.9h-5.6v-9.7l-6.8-15h6.3l2,5.8c0.6,1.7,1.1,3.2,1.5,4.9h0.1c0.4-1.6,0.9-3.2,1.5-4.9
			l1.9-5.7H370.5z"/>
		<path class="st0" d="M396.4,313.6h-5.3l-0.4-8.8c-0.1-2.6-0.3-5.9-0.2-9.2h-0.1c-0.6,3-1.5,6.3-2.2,8.7l-2.4,8.8h-4.2l-2.2-8.8
			c-0.6-2.4-1.3-5.7-1.8-8.7h-0.1c-0.1,3.1-0.3,6.5-0.4,9.2l-0.4,8.8h-5l1.7-24.7h6.9l2,8c0.7,2.9,1.4,5.9,1.9,8.8h0.1
			c0.5-2.8,1.2-6,1.9-8.9l2.1-7.9h6.8L396.4,313.6z"/>
		<path class="st0" d="M413.9,313.6h-14v-24.7h13.5v4.7h-7.9v4.9h7.5v4.6h-7.5v5.7h8.4V313.6z"/>
		<path class="st0" d="M435.4,313.6h-5.6l-4.3-9c-1.1-2.4-2.6-5.6-3.4-8.1h-0.1c0.2,2.9,0.3,6.6,0.3,11v6.1h-5v-24.7h6l4.2,8.8
			c1.1,2.2,2.5,5.4,3.4,7.8h0.1c-0.3-2.9-0.5-6.7-0.5-10.8v-5.9h5V313.6z"/>
		<path class="st0" d="M454.7,293.9H449v19.8h-5.6v-19.8h-5.6v-4.9h16.8V293.9z"/>
	</g>
	<g>
		<g>
			<linearGradient id="SVGID_1_" gradientUnits="userSpaceOnUse" x1="325.3694" y1="97.9379" x2="424.2889" y2="97.9379">
				<stop  offset="0" style="stop-color:#EC0E69"/>
				<stop  offset="1" style="stop-color:#A4276D"/>
			</linearGradient>
			<path class="st1" d="M405.6,148.3c7.2,12.1-1.7,20.7-8.5,22.6c-6.8,1.9-16.5-0.6-20.9-9.2c1.6,24.3,21.7,24.6,31.6,20.7
				c9.9-3.9,15.9-11.9,16.4-29.2c-13.8-11-21.5-31.8-28.1-50.3c-7.9-25.6-20.3-42-35.9-49.4c29.1-12,27.7-42,27.7-42
				s-1.4,10.9-31.9,17s-30.8,20.1-30.8,20.1c6.8-4.9,11.1-7.1,19.7-9.5c8.6-2.4,22.2-3.4,28.6-8.1c0.3,2.5-3.6,13.7-11.2,17.8
				c-7.6,4.1-8.8,7.7-11.3,11.7c21.6,10.9,29.3,25.3,32.2,38.3C389.3,120.2,398.4,136.2,405.6,148.3z"/>
			<linearGradient id="SVGID_2_" gradientUnits="userSpaceOnUse" x1="304.0823" y1="117.3241" x2="372.7066" y2="117.3241">
				<stop  offset="0" style="stop-color:#EC0E69"/>
				<stop  offset="1" style="stop-color:#A4276D"/>
			</linearGradient>
			<path class="st2" d="M327.3,84.4c-6.7,5.8-14.8,27.2,5.9,40.4c20.7,13.2,34.3,11.2,39.4,25.4c-7.3-4.6-17.5-5-28.7-3.2
				s-44.5-3.6-39.4-40C308.7,90.5,327.3,84.4,327.3,84.4z"/>
		</g>
		<linearGradient id="SVGID_3_" gradientUnits="userSpaceOnUse" x1="86.5709" y1="63.5146" x2="314.8419" y2="63.5146">
			<stop  offset="0" style="stop-color:#EC0E69"/>
			<stop  offset="1" style="stop-color:#A4276D"/>
		</linearGradient>
		<path class="st3" d="M243.8,41.4c0,0,46.6-12.7,71,5.4c0,0-73-18.4-121.7,63.8c-19.5-14.5-17.9-30.6-43.7-63.4
			c-20.7-26.3-62.9-20.9-62.9-20.9c25.5-15.4,60.6-14.7,85,16.6c17.6,22.9,23.4,26.4,35.2,17.6c-6-15.9-15.8-31.4-31.1-38.1
			c22.9-1.8,36.3,15.9,43.5,24s13.8,0.6,13.8,0.6s-9.6-20.7-24.4-24.3C208.6,22.7,230.1,21.4,243.8,41.4z"/>
		<linearGradient id="SVGID_4_" gradientUnits="userSpaceOnUse" x1="37.2261" y1="44.4678" x2="150.9095" y2="44.4678">
			<stop  offset="0" style="stop-color:#EC0E69"/>
			<stop  offset="1" style="stop-color:#A4276D"/>
		</linearGradient>
		<path class="st4" d="M150.9,83.9c0,0,1.1-45.9-50.8-46.4C54.7,36.9,42.9,24.4,37.9,5c-3.5,20.6,7,48.1,44.3,48.2
			C118,53.3,140.3,57.5,150.9,83.9z"/>
	</g>
</g>
</svg>
